<?xml version="1.0" standalone="no"?>
<!DOCTYPE svg PUBLIC "-//W3C//DTD SVG 20010904//EN"
 "http://www.w3.org/TR/2001/REC-SVG-20010904/DTD/svg10.dtd">
<svg version="1.0" xmlns="http://www.w3.org/2000/svg"
 width="1024.000000pt" height="1024.000000pt" viewBox="0 0 1024.000000 1024.000000"
 preserveAspectRatio="xMidYMid meet">

<g transform="translate(0.000000,1024.000000) scale(0.100000,-0.100000)"
fill="#000000" stroke="none">
<path d="M1 5463 c-1 -2628 1 -4932 5 -5120 l7 -343 5113 0 5114 0 0 4860 c0
4853 0 4860 -20 4860 -13 0 -20 7 -20 20 0 17 -7 20 -40 20 -33 0 -40 3 -40
20 0 11 -4 20 -10 20 -5 0 -10 9 -10 20 0 11 -4 20 -10 20 -5 0 -10 9 -10 20
0 11 -4 20 -10 20 -5 0 -10 9 -10 20 0 16 -7 20 -30 20 -23 0 -30 4 -30 20 0
13 -7 20 -20 20 -13 0 -20 7 -20 20 0 13 7 20 20 20 13 0 20 7 20 20 0 13 -7
20 -20 20 -18 0 -20 7 -20 60 l0 60 -60 0 -60 0 0 40 0 40 -4919 0 -4918 0 -2
-4777z m5218 3843 c119 -61 155 -160 102 -281 -21 -47 -92 -115 -121 -115 -20
0 -20 -7 -20 -510 l0 -510 -45 0 -45 0 0 505 c0 476 -1 505 -18 505 -61 0
-152 129 -152 214 1 108 107 213 218 215 18 1 54 -10 81 -23z m570 -344 c48
-35 71 -80 71 -139 0 -30 -5 -64 -11 -76 -16 -32 -60 -77 -89 -92 l-25 -13 0
-378 c0 -209 4 -387 9 -396 7 -16 2 -18 -49 -18 l-57 0 7 398 7 399 -36 21
c-68 40 -94 138 -57 210 51 100 157 139 230 84z m-1139 0 c19 -9 45 -33 58
-52 47 -69 15 -197 -61 -246 l-29 -19 6 -95 c3 -52 9 -231 12 -398 l7 -303
-57 3 -58 3 3 190 c2 105 3 283 3 397 l1 207 -25 6 c-37 9 -89 64 -100 106
-38 141 111 266 240 201z m254 -154 c3 -13 6 -226 6 -474 l0 -452 -47 6 c-27
2 -48 5 -48 6 0 0 1 211 3 469 l3 467 38 0 c32 0 40 -4 45 -22z m544 -458 l2
-475 -48 3 -48 4 1 466 c1 257 3 471 3 475 1 5 21 7 45 5 l42 -3 3 -475z
m-1078 83 c41 -34 51 -62 39 -107 -17 -62 -86 -88 -124 -46 -17 19 -31 20
-212 20 l-193 0 -541 -537 c-297 -296 -550 -551 -562 -568 -22 -29 -22 -36
-18 -304 2 -222 1 -275 -10 -282 -8 -5 -35 -9 -61 -9 -36 0 -48 4 -52 18 -3 9
-4 139 -3 288 l3 271 28 47 c29 50 1112 1144 1156 1167 18 10 81 15 227 17
198 4 202 4 224 28 29 31 60 30 99 -3z m1630 2 c23 -25 24 -25 216 -25 106 0
203 -4 216 -9 13 -5 279 -262 590 -572 471 -469 571 -572 589 -614 20 -46 22
-70 27 -310 5 -292 3 -305 -51 -305 -18 0 -43 7 -55 16 -22 15 -22 17 -22 289
l0 273 -556 556 -556 556 -185 0 -184 0 -26 -30 c-14 -17 -35 -30 -48 -30 -58
0 -108 88 -85 153 26 75 86 99 130 52z m1583 -154 c15 -2 6 -41 -12 -51 -26
-14 -29 -13 -41 11 -14 25 2 49 28 44 9 -2 20 -4 25 -4z m-596 -17 c8 -21 -19
-46 -40 -38 -9 3 -17 17 -17 30 0 19 5 24 25 24 14 0 28 -7 32 -16z m161 -6
c-2 -17 -10 -23 -28 -23 -18 0 -26 6 -28 23 -3 19 1 22 28 22 27 0 31 -3 28
-22z m132 -9 c0 -12 -7 -19 -19 -19 -25 0 -35 27 -13 39 21 12 32 5 32 -20z
m157 15 c7 -19 -13 -34 -44 -34 -25 0 -37 15 -29 35 8 21 65 19 73 -1z m298
-9 c0 -13 -8 -21 -22 -23 -19 -3 -23 1 -23 23 0 22 4 26 23 23 14 -2 22 -10
22 -23z m-3673 -214 c13 -5 40 -26 61 -46 l39 -37 136 3 137 4 3 -58 3 -58
-140 7 -139 7 -16 -30 c-35 -69 -107 -104 -170 -83 l-34 11 -130 -128 c-122
-120 -130 -131 -136 -175 -9 -59 -33 -78 -97 -78 -40 0 -51 -4 -69 -27 -11
-16 -76 -84 -144 -153 l-124 -125 -4 -68 c-4 -65 -6 -69 -52 -116 l-49 -49 -6
-155 c-5 -136 -9 -158 -26 -177 -11 -12 -20 -32 -21 -44 0 -11 -4 -40 -8 -62
l-7 -42 -466 -1 c-256 0 -469 2 -474 4 -10 7 9 65 28 85 12 13 76 15 446 16
238 1 438 2 445 3 9 1 10 6 3 19 -5 9 -11 99 -14 200 -4 179 -5 184 -29 210
-37 39 -48 65 -48 112 0 102 92 181 174 150 26 -9 33 -5 128 82 228 209 212
191 218 249 6 62 32 86 102 97 41 6 57 18 162 119 l116 112 0 70 c0 61 3 73
27 102 44 52 116 73 175 50z m2299 -15 c46 -31 69 -80 69 -144 0 -50 1 -52
106 -166 100 -110 107 -116 144 -116 21 0 55 -9 74 -21 35 -20 39 -30 48 -106
2 -13 61 -81 143 -163 l139 -141 51 6 c40 5 57 2 82 -14 86 -54 103 -172 36
-251 l-26 -31 7 -197 c4 -108 9 -198 11 -200 9 -9 69 -11 441 -11 l402 -1 6
-35 c4 -20 4 -45 1 -55 -6 -19 -19 -20 -465 -20 -428 0 -459 1 -463 18 -29
105 -37 170 -43 323 l-6 176 -44 37 c-51 43 -69 93 -54 147 11 34 10 34 -67
104 -43 39 -107 100 -142 138 -52 55 -69 67 -95 67 -65 0 -135 76 -121 132 5
20 -4 32 -57 75 -35 28 -89 79 -122 113 l-58 61 -49 -10 c-74 -16 -140 19
-169 90 l-12 29 -160 0 -160 0 6 31 c3 17 6 42 6 56 l0 24 161 -2 161 -2 22
26 c49 61 135 75 197 33z m-931 -225 c212 -45 368 -89 477 -136 141 -60 309
-154 407 -227 176 -132 378 -344 518 -543 92 -131 194 -378 253 -612 58 -232
61 -639 5 -853 -108 -419 -233 -662 -484 -938 -131 -143 -430 -368 -585 -439
-106 -49 -255 -99 -431 -146 l-155 -42 -280 -2 c-217 -2 -291 0 -330 11 -27 8
-125 32 -217 54 -268 65 -455 154 -676 322 -248 188 -490 470 -612 710 -122
241 -210 611 -210 888 0 263 90 670 164 745 16 15 29 17 90 11 39 -4 72 -7 73
-8 1 -1 -14 -44 -33 -96 -40 -106 -97 -333 -115 -458 -18 -131 -7 -381 25
-532 75 -350 212 -630 425 -867 131 -145 238 -238 380 -331 419 -272 917 -372
1360 -272 357 80 621 207 864 415 99 85 250 261 339 394 279 421 361 967 221
1466 -35 126 -89 279 -121 340 -33 65 -169 264 -233 340 -125 150 -250 261
-414 367 -206 134 -358 195 -640 257 -327 73 -655 48 -1005 -76 -239 -85 -422
-194 -570 -343 l-76 -75 -102 3 c-70 2 -102 7 -102 15 0 14 186 205 263 271
60 51 189 132 297 186 221 111 461 181 720 209 110 12 439 7 510 -8z m-76
-266 c318 -48 590 -163 836 -354 234 -181 395 -380 507 -626 89 -196 138 -390
151 -609 19 -288 -25 -535 -144 -814 -54 -127 -137 -258 -142 -223 -2 12 4 31
12 40 25 27 19 57 -16 85 -18 14 -40 31 -48 38 -8 7 -27 18 -41 25 -23 10 -29
8 -48 -10 -18 -18 -16 -9 13 55 20 43 42 88 50 100 23 35 53 123 81 238 22 86
27 135 31 270 3 139 2 160 -9 133 -16 -42 -31 -55 -25 -22 4 22 0 28 -27 38
-17 6 -41 11 -53 11 -14 0 -22 6 -23 18 0 10 -3 12 -6 5 -8 -21 -33 -15 -33 7
0 13 -7 20 -20 20 -11 0 -20 7 -20 15 0 18 -16 20 -23 3 -8 -20 -26 10 -20 33
3 10 0 19 -6 19 -6 0 -11 -7 -11 -15 0 -8 -5 -15 -11 -15 -6 0 -8 9 -4 20 3
11 2 20 -4 20 -5 0 -12 8 -14 18 -3 11 -5 8 -6 -9 0 -15 -14 -80 -31 -145 -16
-66 -45 -187 -64 -271 -19 -83 -44 -170 -56 -194 -31 -60 -103 -133 -158 -161
l-47 -23 -725 -6 c-565 -4 -735 -3 -768 7 -58 17 -125 74 -152 128 -20 42
-100 376 -175 731 -30 141 -117 504 -145 608 l-11 37 -262 0 c-144 0 -292 3
-330 7 -62 5 -66 7 -47 20 16 11 20 25 20 72 0 37 5 63 13 70 26 21 212 34
457 32 276 -3 279 -3 310 -74 22 -50 147 -547 185 -732 59 -292 108 -502 147
-625 27 -86 29 -87 156 -89 l73 -1 -3 120 -3 120 -82 0 -82 0 -11 58 c-6 31
-13 67 -15 79 -5 22 -2 22 87 25 109 3 104 -4 93 133 l-7 91 -87 -4 c-116 -6
-125 0 -145 87 -9 39 -16 74 -16 80 0 6 45 8 125 4 l125 -6 0 109 0 109 -141
0 -142 0 -14 40 c-7 22 -19 65 -26 95 l-13 55 665 -2 c366 -1 659 0 651 2 -8
2 -36 7 -62 10 -29 4 -48 11 -48 19 0 7 -18 21 -41 31 -22 10 -50 31 -63 46
-31 37 -58 49 -108 49 -32 0 -47 5 -58 20 -8 11 -24 20 -36 20 -36 0 -54 11
-54 31 0 12 -7 19 -20 19 -13 0 -20 7 -20 19 0 15 -10 21 -42 26 -55 9 -98 34
-98 57 0 11 -7 18 -18 18 -10 0 -24 9 -32 20 -8 11 -22 20 -32 20 -10 0 -18 5
-18 10 0 6 -9 10 -20 10 -11 0 -20 5 -20 10 0 6 -9 10 -20 10 -16 0 -20 7 -20
35 0 28 -4 35 -20 35 -11 0 -20 -7 -20 -15 0 -17 -2 -18 -24 -9 -9 3 -16 12
-16 20 0 8 -4 14 -10 14 -5 0 -10 4 -10 8 0 11 57 31 113 38 26 4 47 10 47 15
0 4 30 11 68 15 38 5 55 10 40 12 -27 3 -161 -20 -223 -38 -16 -5 -55 -17 -85
-26 -30 -9 -108 -41 -173 -71 -135 -62 -151 -62 -215 -7 -23 20 -51 34 -66 34
-14 0 -26 4 -26 9 0 5 -24 11 -52 13 -49 4 -56 2 -93 -31 -47 -43 -28 -14 34
52 81 86 333 222 521 281 102 33 269 68 370 79 91 10 304 5 394 -8z m-667
-371 c-3 -3 -12 -4 -19 -1 -8 3 -5 6 6 6 11 1 17 -2 13 -5z m-2689 -500 c31
-20 80 -99 88 -140 23 -122 -143 -239 -268 -189 -103 40 -144 131 -102 221 24
51 97 122 130 127 45 8 127 -3 152 -19z m6413 -3 c62 -39 89 -85 89 -151 0
-165 -197 -244 -294 -117 -36 47 -60 120 -52 160 23 122 151 176 257 108z
m-5573 -440 l182 -3 0 -24 c0 -13 -6 -24 -12 -25 -10 0 -10 -2 0 -6 17 -7 15
-33 -3 -33 -10 0 -15 11 -16 33 l-1 32 -10 -32 -10 -31 -502 -4 c-484 -4 -502
-3 -518 15 -19 21 -24 73 -8 79 12 4 641 3 898 -1z m5426 -23 c9 -12 16 -36
16 -53 l0 -30 -542 3 c-299 2 -544 5 -545 5 0 1 1 23 4 50 l6 47 523 0 523 0
15 -22z m-4613 -173 c-6 -51 -11 -125 -11 -164 0 -144 50 -424 100 -558 31
-83 118 -252 156 -305 56 -76 32 -56 -51 43 -88 106 -148 223 -220 432 -54
161 -77 333 -57 441 7 35 12 82 12 104 0 51 15 92 34 92 7 0 20 7 27 16 20 25
22 4 10 -101z m5180 30 c27 -19 54 -51 72 -85 25 -48 28 -63 25 -120 -5 -81
-38 -138 -105 -180 -104 -66 -250 -16 -303 104 l-20 43 -151 6 c-84 4 -367 7
-631 7 l-478 0 0 56 0 57 573 -7 c314 -4 595 -9 622 -12 l50 -5 23 44 c50 94
108 129 209 125 61 -3 78 -8 114 -33z m-7183 9 c50 -20 89 -59 119 -117 21
-42 27 -48 46 -42 12 4 114 12 227 17 174 8 596 1 917 -15 35 -2 43 -19 19
-43 -8 -7 -16 -18 -18 -24 -8 -24 -106 -27 -620 -21 l-537 6 -15 -31 c-24 -51
-76 -103 -127 -130 -150 -75 -329 36 -329 204 0 45 43 125 85 159 63 51 162
67 233 37z m6681 -422 c7 -25 10 -47 5 -52 -5 -4 -258 -5 -561 -3 l-553 6 0
49 0 48 548 -2 547 -3 14 -43z m-5353 23 c4 -8 10 -12 15 -9 5 3 9 -9 9 -27 0
-31 -1 -32 -15 -13 -14 19 -15 19 -21 -2 -5 -19 -15 -22 -102 -27 -53 -4 -283
-7 -509 -7 l-413 0 0 28 c0 16 6 36 13 45 15 20 58 22 615 25 349 2 403 0 408
-13z m5114 -251 c19 -48 13 -72 -19 -79 -16 -3 -221 -5 -455 -3 l-426 3 0 53
0 52 445 0 445 0 10 -26z m-5120 -3 c5 -11 10 -31 10 -44 0 -19 -6 -26 -31
-31 -17 -3 -204 -6 -415 -6 l-384 0 0 44 c0 34 4 46 18 49 9 3 191 5 404 6
373 1 388 0 398 -18z m-937 -27 c107 -70 102 -215 -8 -280 -39 -23 -54 -26
-105 -22 -69 5 -101 28 -131 93 -42 91 -15 173 72 218 64 33 111 31 172 -9z
m6355 15 c122 -60 116 -239 -10 -305 -86 -45 -226 25 -244 121 -15 80 21 145
99 184 54 27 99 27 155 0z m-1164 -358 l-7 -199 27 -17 c66 -44 86 -165 38
-233 -32 -43 -102 -75 -150 -67 -37 6 -37 6 -185 -142 -137 -139 -147 -150
-147 -186 0 -21 -5 -47 -10 -58 -13 -24 -61 -49 -95 -49 -20 0 -57 -29 -149
-116 l-122 -115 4 -57 c3 -47 0 -63 -20 -91 -59 -86 -203 -97 -244 -19 l-15
28 -159 0 -160 0 0 28 c0 15 -3 38 -7 51 l-6 24 81 -7 c45 -3 117 -4 160 0
l78 7 20 41 c28 57 78 89 129 83 22 -3 49 -8 60 -11 16 -5 47 20 143 113 78
76 122 126 122 139 0 25 30 59 82 94 20 14 105 91 189 171 l152 145 -12 33
c-28 81 -3 161 64 200 l35 21 0 188 c0 210 -5 196 73 199 l38 1 -7 -199z
m-4099 159 c9 -17 15 -56 15 -97 0 -37 3 -112 7 -166 6 -95 7 -98 37 -117 48
-29 80 -92 73 -143 -3 -23 -9 -51 -12 -63 -5 -16 18 -44 127 -150 73 -71 160
-149 193 -174 33 -25 76 -68 95 -94 19 -27 85 -100 146 -163 100 -103 114
-114 132 -104 32 17 104 13 142 -8 21 -11 43 -34 55 -59 l20 -41 143 -1 142 0
0 -43 0 -44 -97 -6 c-54 -4 -119 -7 -145 -7 -41 0 -50 -4 -69 -30 -24 -32 -83
-60 -128 -60 -36 0 -89 36 -118 79 -17 26 -23 48 -23 92 l0 58 -67 57 c-123
104 -294 268 -336 323 -23 29 -99 107 -169 173 -117 108 -131 119 -157 113
-62 -13 -153 58 -167 131 -9 47 9 106 45 147 28 32 28 32 35 221 4 104 9 193
12 198 13 20 54 7 69 -22z m-389 2 c31 -20 33 -51 27 -368 l-6 -319 53 -60
c28 -33 280 -286 558 -562 l507 -502 184 -1 c155 0 187 3 202 16 10 9 35 18
57 21 53 7 92 -28 92 -82 0 -66 -85 -123 -120 -80 -10 12 -49 15 -230 15
l-218 0 -49 38 c-27 20 -288 278 -580 573 -396 398 -537 547 -552 580 -19 41
-21 65 -21 373 0 293 2 331 17 348 16 18 59 24 79 10z m4890 -27 c15 -23 16
-55 8 -353 l-9 -328 -39 -54 c-48 -67 -1077 -1102 -1126 -1133 -33 -21 -48
-22 -242 -24 -171 -1 -211 -4 -230 -17 -78 -55 -159 59 -97 138 25 31 47 33
99 6 35 -18 59 -20 209 -20 93 0 180 4 193 9 27 11 977 952 1064 1055 l59 69
3 325 c1 221 6 329 13 339 6 7 27 13 45 13 25 0 38 -7 50 -25z m-2106 -62 c0
-3 -17 -23 -37 -44 -21 -21 -47 -62 -58 -91 l-21 -53 -184 -3 c-102 -2 -204 0
-228 3 -39 6 -44 11 -68 56 -13 27 -41 67 -60 89 l-35 39 38 4 c68 7 653 7
653 0z m-817 -33 c73 -28 112 -60 143 -121 81 -161 64 -306 -52 -425 -88 -91
-214 -117 -347 -73 -95 31 -155 81 -197 163 -32 63 -35 76 -35 155 0 71 5 95
26 141 41 88 124 154 226 180 57 14 171 5 236 -20z m1193 3 c59 -20 136 -94
179 -173 26 -48 30 -65 30 -135 0 -100 -31 -170 -105 -239 -150 -140 -356
-136 -489 10 -102 112 -107 245 -13 417 59 109 255 169 398 120z m479 -88
c-16 -33 -54 -70 -63 -61 -2 2 13 27 34 55 41 58 54 61 29 6z m2349 -646 c45
-31 66 -68 66 -119 0 -85 -68 -150 -156 -150 -66 0 -106 26 -135 89 -17 35
-28 49 -39 45 -8 -3 -174 -8 -367 -11 l-353 -6 0 21 c0 22 1 22 268 24 511 4
461 1 478 34 53 101 153 132 238 73z m-6558 -94 c18 -24 18 -105 0 -130 -10
-14 -30 -19 -93 -23 -99 -6 -113 4 -113 84 0 81 20 97 117 92 60 -3 78 -7 89
-23z m3573 -1007 c1 -456 3 -548 15 -548 47 0 105 -94 106 -170 0 -88 -50
-146 -135 -156 -107 -12 -192 74 -182 182 7 65 30 111 68 132 l29 17 0 553 0
552 28 10 c15 6 34 14 42 19 11 6 17 2 21 -18 4 -14 7 -272 8 -573z m-1121
557 c4 -4 8 -254 10 -556 l3 -549 25 -27 c113 -122 58 -293 -94 -293 -122 0
-193 106 -147 218 19 43 51 81 81 92 21 9 22 10 29 570 l7 562 40 -5 c22 -3
43 -8 46 -12z m277 -58 c9 -26 20 -971 12 -991 -4 -11 -14 -12 -43 -6 -20 5
-42 14 -48 20 -13 13 -16 936 -4 981 6 22 12 25 42 21 24 -3 36 -10 41 -25z
m555 -503 l0 -536 -27 7 c-16 3 -38 13 -50 21 l-23 14 0 434 c0 238 3 461 7
495 5 56 9 64 32 72 14 5 33 13 41 18 8 6 16 10 18 10 1 1 2 -240 2 -535z
m-270 -133 l0 -639 25 -6 c37 -9 96 -65 116 -111 23 -50 24 -136 3 -181 -37
-79 -135 -133 -217 -120 -142 23 -217 147 -175 290 15 49 75 111 115 120 l30
7 7 627 c7 690 3 652 68 652 l28 0 0 -639z m275 -1492 c50 -6 110 -12 135 -14
53 -5 194 -23 230 -30 14 -2 54 -9 90 -15 36 -6 79 -16 96 -21 17 -5 40 -9 52
-9 12 0 22 -4 22 -9 0 -4 37 -12 83 -16 73 -7 78 -9 47 -16 -19 -5 -51 -8 -70
-8 -96 2 -584 -40 -660 -56 -134 -29 -501 -39 -620 -17 -77 14 -312 39 -490
52 -237 18 -341 28 -345 32 -2 2 24 10 58 17 34 7 89 21 123 32 91 29 239 48
423 54 91 4 173 9 181 12 8 3 78 11 155 19 146 13 336 10 490 -7z"/>
<path d="M5074 9210 c-68 -44 -67 -129 1 -189 78 -69 165 -12 165 108 0 43 -4
53 -31 75 -38 32 -91 34 -135 6z"/>
<path d="M5651 8856 c-18 -19 -22 -31 -16 -53 9 -38 43 -73 71 -73 49 0 84 98
48 134 -24 25 -77 20 -103 -8z"/>
<path d="M4506 8859 c-14 -17 -26 -35 -26 -41 0 -20 68 -78 92 -78 32 0 73 60
64 95 -7 26 -51 55 -85 55 -10 0 -31 -14 -45 -31z"/>
<path d="M5053 7253 c15 -2 37 -2 50 0 12 2 0 4 -28 4 -27 0 -38 -2 -22 -4z"/>
<path d="M4100 7185 c-7 -9 -8 -15 -2 -15 5 0 12 7 16 15 3 8 4 15 2 15 -2 0
-9 -7 -16 -15z"/>
<path d="M4803 6384 c4 -38 7 -88 7 -111 l0 -43 105 0 105 0 0 105 0 105 -64
0 c-35 0 -85 3 -111 7 l-48 6 6 -69z"/>
<path d="M5160 6339 l0 -109 110 0 110 0 0 108 0 107 -110 1 -110 2 0 -109z"/>
<path d="M5530 6341 l0 -109 73 -7 c39 -4 88 -5 107 -3 l35 3 3 113 3 112
-111 0 -110 0 0 -109z"/>
<path d="M5892 6336 l3 -109 102 -1 c56 0 104 2 107 5 3 2 11 36 19 74 14 66
14 72 -5 97 -23 33 -36 36 -146 40 l-83 3 3 -109z"/>
<path d="M4810 6005 c0 -33 3 -84 6 -112 l7 -53 102 0 102 0 -1 113 -1 113
-107 0 -108 0 0 -61z"/>
<path d="M5170 5955 l0 -115 105 0 105 0 0 115 0 115 -105 0 -105 0 0 -115z"/>
<path d="M5530 5955 l0 -115 105 0 c77 0 105 3 106 13 1 6 3 58 4 115 l3 102
-109 0 -109 0 0 -115z"/>
<path d="M5887 5957 c-4 -61 -3 -115 1 -119 5 -5 43 -5 85 -2 58 5 78 11 81
23 3 9 12 52 21 96 9 44 18 87 21 96 4 15 -8 17 -99 17 l-104 0 -6 -111z"/>
<path d="M4909 5683 l-96 -4 3 -115 c1 -64 4 -118 6 -120 3 -2 49 -5 104 -7
l99 -2 0 127 c0 80 -4 127 -10 126 -5 -1 -53 -4 -106 -5z"/>
<path d="M5604 5683 l-80 -4 -1 -126 0 -126 156 7 c163 8 195 16 248 60 33 28
76 107 88 164 6 31 6 32 -27 32 -18 0 -50 -3 -70 -6 l-38 -7 0 -61 c0 -69 -16
-135 -33 -141 -7 -2 -33 -6 -59 -10 l-48 -6 0 115 0 116 -27 -2 c-16 -1 -64
-4 -109 -5z"/>
<path d="M5160 5561 l0 -120 106 -3 c58 -2 108 -1 110 1 2 2 4 58 4 123 l0
118 -110 0 -110 0 0 -119z"/>
<path d="M1855 6582 c-24 -16 -55 -66 -55 -86 0 -29 48 -74 87 -82 60 -12 111
66 87 131 -13 32 -92 57 -119 37z"/>
<path d="M8275 6570 c-61 -68 35 -181 101 -119 40 37 31 100 -17 124 -38 20
-63 19 -84 -5z"/>
<path d="M8639 5941 c-34 -33 -39 -45 -39 -83 0 -54 23 -88 76 -113 30 -14 41
-15 65 -5 50 21 79 65 79 119 0 53 -18 84 -60 106 -48 25 -78 19 -121 -24z"/>
<path d="M1494 5948 c-44 -34 -53 -50 -54 -88 0 -67 62 -134 125 -134 91 0
158 120 104 188 -45 58 -124 73 -175 34z"/>
<path d="M1877 5302 c-20 -22 -22 -80 -4 -103 15 -20 51 -39 72 -39 9 0 30 13
46 29 57 58 26 131 -56 131 -28 0 -47 -6 -58 -18z"/>
<path d="M8266 5309 c-30 -24 -35 -72 -10 -107 11 -16 25 -22 54 -22 46 0 70
26 70 76 0 35 -37 74 -70 74 -10 0 -29 -9 -44 -21z"/>
<path d="M3984 3760 c1 -8 10 -16 21 -17 15 -1 15 0 3 3 -9 3 -19 11 -21 17
-2 7 -3 5 -3 -3z"/>
<path d="M4496 4920 c-41 -13 -73 -46 -92 -96 -27 -71 2 -154 68 -194 47 -28
125 -27 169 3 100 67 104 223 7 273 -37 19 -114 26 -152 14z"/>
<path d="M5715 4913 c-32 -8 -84 -51 -100 -83 -36 -69 -4 -174 61 -205 69 -33
161 -19 205 31 26 30 49 81 49 108 0 42 -30 105 -61 127 -29 21 -114 33 -154
22z"/>
<path d="M8566 4286 c-45 -42 -47 -76 -7 -117 24 -23 38 -29 74 -29 39 0 49 5
76 35 45 52 41 104 -10 130 -48 26 -93 19 -133 -19z"/>
<path d="M5640 2581 c-30 -57 5 -121 67 -121 60 0 81 72 36 123 -23 24 -89 23
-103 -2z"/>
<path d="M4515 2585 c-44 -43 -23 -105 41 -121 22 -6 32 -2 51 20 25 30 29 56
12 89 -24 45 -67 50 -104 12z"/>
<path d="M5055 2337 c-47 -47 -49 -101 -6 -149 26 -29 35 -33 80 -33 42 0 55
5 78 28 23 23 28 36 28 77 0 65 -32 100 -99 107 -42 5 -48 3 -81 -30z"/>
</g>
</svg>
